<svg xmlns="http://www.w3.org/2000/svg" width="400" height="190" viewBox="0 0 680 320">
  <title>GymGear Compare</title>
  <defs>
    <clipPath id="leftClip">
      <polygon points="0,0 330,0 270,320 0,320"/>
    </clipPath>
    <clipPath id="rightClip">
      <polygon points="350,0 680,0 680,320 410,320"/>
    </clipPath>
  </defs>
  <rect x="120" y="110" width="22" height="100" rx="5" fill="#e8772a" clip-path="url(#leftClip)"/>
  <rect x="142" y="122" width="14" height="76" rx="3" fill="#e8772a" clip-path="url(#leftClip)"/>
  <rect x="156" y="146" width="120" height="28" rx="3" fill="#e8772a" clip-path="url(#leftClip)"/>
  <rect x="404" y="146" width="120" height="28" rx="3" fill="#cc3a10" clip-path="url(#rightClip)"/>
  <rect x="524" y="122" width="14" height="76" rx="3" fill="#cc3a10" clip-path="url(#rightClip)"/>
  <rect x="538" y="110" width="22" height="100" rx="5" fill="#cc3a10" clip-path="url(#rightClip)"/>
  <polygon points="316,96 364,96 364,224 316,224" fill="#1a1714"/>
  <polygon points="316,96 364,96 316,224" fill="#e8772a"/>
  <polygon points="364,96 364,224 316,224" fill="#cc3a10"/>
  <text x="340" y="264" text-anchor="middle" font-family="'Syne','Arial Black',sans-serif" font-weight="800" font-size="42" letter-spacing="6" fill="#1a1714">GYMGEAR</text>
  <text x="340" y="298" text-anchor="middle" font-family="'DM Sans',Arial,sans-serif" font-weight="400" font-size="16" letter-spacing="10" fill="#706b63">COMPARE</text>
</svg>
