<svg viewBox="0 0 64 64" xmlns="http://www.w3.org/2000/svg" role="img" aria-label="GymGear Compare">
  <defs>
    <linearGradient id="bg" x1="0%" y1="0%" x2="100%" y2="0%">
      <stop offset="0%" stop-color="#f5a623"/>
      <stop offset="100%" stop-color="#e8542a"/>
    </linearGradient>
  </defs>
  <!-- Navy tile — matches the intro loader background, reads on light or dark tabs -->
  <rect x="0" y="0" width="64" height="64" rx="14" fill="#081124"/>
  <!-- Orbit rings (accent outer, faint-white inner) -->
  <ellipse cx="32" cy="32" rx="27" ry="18" fill="none" stroke="#e8542a" stroke-width="3"/>
  <ellipse cx="32" cy="32" rx="20" ry="12.5" fill="none" stroke="#ffffff" stroke-opacity="0.28" stroke-width="1.4"/>
  <!-- Barbell + bolt brand mark, scaled to sit inside the inner ring -->
  <g transform="translate(9.6 21.9) scale(0.14)" fill="url(#bg)">
    <rect x="54" y="44" width="12" height="56" rx="3"/>
    <rect x="66" y="52" width="8" height="40" rx="2"/>
    <rect x="74" y="67" width="32" height="10" rx="2"/>
    <rect x="214" y="67" width="32" height="10" rx="2"/>
    <rect x="246" y="52" width="8" height="40" rx="2"/>
    <rect x="254" y="44" width="12" height="56" rx="3"/>
    <polygon points="160,8 190,72 162,72"/>
    <polygon points="160,136 130,72 158,72"/>
    <rect x="106" y="67" width="108" height="10"/>
  </g>
</svg>
